{
  "accessors": [
    {
      "bufferView": 0,
      "componentType": 5126,
      "count": 35,
      "max": [
        0.246961310505867,
        0.2448076456785202,
        0.18851007521152496
      ],
      "min": [
        -0.20029999315738678,
        -0.2322150021791458,
        -0.0024999999441206455
      ],
      "type": "VEC3"
    },
    {
      "bufferView": 1,
      "componentType": 5125,
      "count": 58,
      "type": "SCALAR"
    },
    {
      "bufferView": 2,
      "componentType": 5126,
      "count": 35,
      "type": "VEC3"
    },
    {
      "bufferView": 3,
      "componentType": 5126,
      "count": 35,
      "type": "VEC4"
    },
    {
      "bufferView": 4,
      "componentType": 5126,
      "count": 35,
      "type": "VEC2"
    },
    {
      "bufferView": 5,
      "componentType": 5126,
      "count": 152,
      "max": [
        0.24753770232200623,
        0.24653631448745728,
        0.1897221952676773
      ],
      "min": [
        -0.20562300086021423,
        -0.23491400480270386,
        -0.0025009301025420427
      ],
      "type": "VEC3"
    },
    {
      "bufferView": 6,
      "componentType": 5125,
      "count": 266,
      "type": "SCALAR"
    },
    {
      "bufferView": 7,
      "componentType": 5126,
      "count": 152,
      "type": "VEC3"
    },
    {
      "bufferView": 8,
      "componentType": 5126,
      "count": 152,
      "type": "VEC4"
    },
    {
      "bufferView": 9,
      "componentType": 5126,
      "count": 152,
      "type": "VEC2"
    }
  ],
  "asset": {
    "version": "2.0"
  },
  "bufferViews": [
    {
      "buffer": 0,
      "byteLength": 420,
      "target": 34962
    },
    {
      "buffer": 1,
      "byteLength": 232,
      "target": 34963
    },
    {
      "buffer": 2,
      "byteLength": 420,
      "target": 34962
    },
    {
      "buffer": 3,
      "byteLength": 560,
      "target": 34962
    },
    {
      "buffer": 4,
      "byteLength": 280,
      "target": 34962
    },
    {
      "buffer": 5,
      "byteLength": 1824,
      "target": 34962
    },
    {
      "buffer": 6,
      "byteLength": 1064,
      "target": 34963
    },
    {
      "buffer": 7,
      "byteLength": 1824,
      "target": 34962
    },
    {
      "buffer": 8,
      "byteLength": 2432,
      "target": 34962
    },
    {
      "buffer": 9,
      "byteLength": 1216,
      "target": 34962
    }
  ],
  "buffers": [
    {
      "byteLength": 420,
      "uri": "data:application/octet-stream;base64,"
    },
    {
      "byteLength": 232,
      "uri": "data:application/octet-stream;base64,"
    },
    {
      "byteLength": 420,
      "uri": "data:application/octet-stream;base64,"
    },
    {
      "byteLength": 560,
      "uri": "data:application/octet-stream;base64,"
    },
    {
      "byteLength": 280,
      "uri": "data:application/octet-stream;base64,"
    },
    {
      "byteLength": 1824,
      "uri": "data:application/octet-stream;base64,"
    },
    {
      "byteLength": 1064,
      "uri": "data:application/octet-stream;base64,"
    },
    {
      "byteLength": 1824,
      "uri": "data:application/octet-stream;base64,"
    },
    {
      "byteLength": 2432,
      "uri": "data:application/octet-stream;base64,"
    },
    {
      "byteLength": 1216,
      "uri": "data:application/octet-stream;base64,"
    }
  ],
  "materials": [
    {
      "doubleSided": true,
      "name": "Material.002",
      "normalTexture" : {
      "index" : 2,
      "scale" : 2
      },
      "pbrMetallicRoughness": {
        "baseColorTexture" : {"index" : 1},
        "metallicFactor" : 0,
        "metallicRoughnessTexture" : { "index" : 3 },
        "baseColorFactor": [
          1.0,
          1.0,
          1.0,
          1.0
        ]
      }
    }
,   {
      "doubleSided": true,
      "name": "Material.001",
      "pbrMetallicRoughness": {
        "baseColorTexture" : {"index" : 0},
        "baseColorFactor": [
          1.0,
          1.0,
          1.0,
          1.0
        ]
      }
    }
  ],
  "images": [
    {
         "uri" : "32e78e3641c340029e12960038e89690_RGB_M_Zellij_T_1-1.jpeg"
    },
    {
         "uri" : "419b74f0418649fb862d7f53e29fe981_RGB_Clay001_2K_Color.png"
    },
    {
         "uri" : "a6a9be75ecd14f7a89c5c40ba8477fac_N_Clay001_2K_Normal.png"
    },
    {
         "uri" : "c7d70088e5fe451392340c159bf03f4e_R_Clay001_2K_Roughness.png"
    }
  ],
  "textures": [
    {
         "source" : 0
    },
    {
         "source" : 1
    },
    {
         "source" : 2
    },
    {
         "source" : 3
    }
  ],
  "meshes": [
    {
      "primitives": [
        {
          "attributes": {
            "NORMAL": 2,
            "POSITION": 0,
            "TANGENT": 3,
            "TEXCOORD_0": 4
          },
          "indices": 1,
          "mode": 5
        }
      ]
    },
    {
      "primitives": [
        {
          "attributes": {
            "NORMAL": 7,
            "POSITION": 5,
            "TANGENT": 8,
            "TEXCOORD_0": 9
          },
          "indices": 6,
          "mode": 5
        }
      ]
    }
  ],
  "nodes": [
    {
      "mesh": 0,
      "name": "_gltfNode_0"
    },
    {
      "mesh": 1,
      "name": "_gltfNode_1"
    },
    {
      "children": [
        0,
        1
      ],
      "name": "GLTF Converted Scene",
      "rotation": [
        -0.7071067811865475,
        0.0,
        0.0,
        0.7071067811865476
      ],
      "scale": [
        1.0,
        1.0,
        1.0
      ],
      "translation": [
        0.0,
        0.0,
        0.0
      ]
    }
  ],
  "scene": 0,
  "scenes": [
    {
      "nodes": [
        2
      ]
    }
  ]
}
