<svg width="1019" height="235" viewBox="0 0 1019 235" fill="none" xmlns="http://www.w3.org/2000/svg">
<path d="M19.3594 42.25H62.1562V14.7812H74.3438V82H62.1562V54.5312H19.3594V82H7.17188V14.7812H19.3594V42.25ZM120.776 20.9219H108.589V9.90625H120.776V20.9219ZM120.776 82H108.589V31.3281H120.776V82ZM214.084 31.3281C212.709 35.6094 211.099 39.8281 209.256 43.9844C207.412 48.1406 205.287 52.1094 202.881 55.8906C200.506 59.6406 197.834 63.125 194.865 66.3438C191.928 69.5312 188.662 72.2969 185.068 74.6406C181.506 76.9531 177.615 78.7812 173.396 80.125C169.209 81.4375 164.662 82.0938 159.756 82.0938C158.912 82.0938 158.115 81.9375 157.365 81.625C156.615 81.3125 155.959 80.8906 155.396 80.3594C154.834 79.7969 154.396 79.1562 154.084 78.4375C153.771 77.6875 153.615 76.8906 153.615 76.0469V31.3281H165.803V69.4375C168.771 69.4375 171.615 68.7969 174.334 67.5156C177.084 66.2344 179.678 64.5469 182.115 62.4531C184.553 60.3281 186.803 57.9219 188.865 55.2344C190.959 52.5469 192.818 49.7969 194.443 46.9844C196.068 44.1406 197.443 41.3594 198.568 38.6406C199.724 35.9219 200.584 33.4844 201.146 31.3281H214.084ZM294.126 48.1094C294.126 49.7969 293.829 51.625 293.235 53.5938C292.641 55.5312 291.673 57.3438 290.329 59.0312C289.016 60.6875 287.282 62.0781 285.126 63.2031C283.001 64.3281 280.407 64.8906 277.344 64.8906H255.36V53.3125H277.344C279.001 53.3125 280.282 52.8125 281.188 51.8125C282.094 50.7812 282.548 49.5156 282.548 48.0156C282.548 46.4219 282.032 45.1719 281.001 44.2656C280.001 43.3594 278.782 42.9062 277.344 42.9062H255.36C253.704 42.9062 252.423 43.4219 251.516 44.4531C250.61 45.4531 250.157 46.7031 250.157 48.2031V65.2188C250.157 66.8438 250.657 68.1094 251.657 69.0156C252.688 69.9219 253.954 70.375 255.454 70.375H277.344V82H255.36C253.673 82 251.844 81.7031 249.876 81.1094C247.938 80.5156 246.126 79.5625 244.438 78.25C242.782 76.9062 241.391 75.1719 240.266 73.0469C239.141 70.8906 238.579 68.2812 238.579 65.2188V48.1094C238.579 46.4219 238.876 44.6094 239.469 42.6719C240.063 40.7031 241.016 38.8906 242.329 37.2344C243.673 35.5469 245.407 34.1406 247.532 33.0156C249.688 31.8906 252.298 31.3281 255.36 31.3281H277.344C279.032 31.3281 280.844 31.625 282.782 32.2188C284.751 32.8125 286.563 33.7812 288.219 35.125C289.907 36.4375 291.313 38.1719 292.438 40.3281C293.563 42.4531 294.126 45.0469 294.126 48.1094ZM355.511 38.7812L376.043 14.7812H392.683L363.761 48.4844L392.496 82H375.949L355.511 58.1875L335.168 82H318.574L347.261 48.4844L318.48 14.7812H334.98L355.511 38.7812ZM476.006 64.8906C476.006 66.9844 475.741 68.875 475.209 70.5625C474.678 72.2188 473.975 73.6875 473.1 74.9688C472.225 76.2188 471.209 77.2969 470.053 78.2031C468.897 79.0781 467.678 79.7969 466.397 80.3594C465.147 80.9219 463.881 81.3438 462.6 81.625C461.319 81.875 460.1 82 458.944 82H436.959V69.8125H458.944C460.569 69.8125 461.788 69.3906 462.6 68.5469C463.413 67.7031 463.819 66.4844 463.819 64.8906V48.4844C463.819 46.7969 463.397 45.5469 462.553 44.7344C461.741 43.9219 460.538 43.5156 458.944 43.5156H437.053C435.397 43.5156 434.147 43.9375 433.303 44.7812C432.459 45.5938 432.038 46.7969 432.038 48.3906V97.8438H419.85V48.3906C419.85 46.2969 420.116 44.4219 420.647 42.7656C421.178 41.1094 421.881 39.6562 422.756 38.4062C423.663 37.125 424.694 36.0469 425.85 35.1719C427.006 34.2656 428.209 33.5312 429.459 32.9688C430.741 32.4062 432.022 32 433.303 31.75C434.616 31.4688 435.834 31.3281 436.959 31.3281H458.944C461.038 31.3281 462.913 31.5938 464.569 32.125C466.225 32.6562 467.678 33.3594 468.928 34.2344C470.209 35.1094 471.288 36.125 472.163 37.2812C473.069 38.4375 473.803 39.6562 474.366 40.9375C474.928 42.1875 475.334 43.4531 475.584 44.7344C475.866 46.0156 476.006 47.2344 476.006 48.3906V64.8906ZM562.048 48.1094C562.048 49.7969 561.751 51.625 561.158 53.5938C560.564 55.5312 559.595 57.3438 558.251 59.0312C556.939 60.6875 555.204 62.0781 553.048 63.2031C550.923 64.3281 548.329 64.8906 545.267 64.8906H523.283V53.3125H545.267C546.923 53.3125 548.204 52.8125 549.111 51.8125C550.017 50.7812 550.47 49.5156 550.47 48.0156C550.47 46.4219 549.954 45.1719 548.923 44.2656C547.923 43.3594 546.704 42.9062 545.267 42.9062H523.283C521.626 42.9062 520.345 43.4219 519.439 44.4531C518.533 45.4531 518.079 46.7031 518.079 48.2031V65.2188C518.079 66.8438 518.579 68.1094 519.579 69.0156C520.611 69.9219 521.876 70.375 523.376 70.375H545.267V82H523.283C521.595 82 519.767 81.7031 517.798 81.1094C515.861 80.5156 514.048 79.5625 512.361 78.25C510.704 76.9062 509.314 75.1719 508.189 73.0469C507.064 70.8906 506.501 68.2812 506.501 65.2188V48.1094C506.501 46.4219 506.798 44.6094 507.392 42.6719C507.986 40.7031 508.939 38.8906 510.251 37.2344C511.595 35.5469 513.329 34.1406 515.454 33.0156C517.611 31.8906 520.22 31.3281 523.283 31.3281H545.267C546.954 31.3281 548.767 31.625 550.704 32.2188C552.673 32.8125 554.486 33.7812 556.142 35.125C557.829 36.4375 559.236 38.1719 560.361 40.3281C561.486 42.4531 562.048 45.0469 562.048 48.1094ZM635.715 43.5156H608.293C606.637 43.5156 605.387 43.9375 604.543 44.7812C603.699 45.5938 603.278 46.7969 603.278 48.3906V82H591.09V48.3906C591.09 46.2969 591.356 44.4219 591.887 42.7656C592.418 41.1094 593.121 39.6562 593.996 38.4062C594.903 37.125 595.934 36.0469 597.09 35.1719C598.246 34.2656 599.449 33.5312 600.699 32.9688C601.981 32.4062 603.262 32 604.543 31.75C605.856 31.4688 607.074 31.3281 608.199 31.3281H635.715V43.5156ZM677.273 20.9219H665.085V9.90625H677.273V20.9219ZM677.273 82H665.085V31.3281H677.273V82ZM764.627 48.1094C764.627 49.7969 764.33 51.625 763.736 53.5938C763.143 55.5312 762.174 57.3438 760.83 59.0312C759.518 60.6875 757.783 62.0781 755.627 63.2031C753.502 64.3281 750.908 64.8906 747.846 64.8906H725.861V53.3125H747.846C749.502 53.3125 750.783 52.8125 751.689 51.8125C752.596 50.7812 753.049 49.5156 753.049 48.0156C753.049 46.4219 752.533 45.1719 751.502 44.2656C750.502 43.3594 749.283 42.9062 747.846 42.9062H725.861C724.205 42.9062 722.924 43.4219 722.018 44.4531C721.111 45.4531 720.658 46.7031 720.658 48.2031V65.2188C720.658 66.8438 721.158 68.1094 722.158 69.0156C723.189 69.9219 724.455 70.375 725.955 70.375H747.846V82H725.861C724.174 82 722.346 81.7031 720.377 81.1094C718.439 80.5156 716.627 79.5625 714.939 78.25C713.283 76.9062 711.893 75.1719 710.768 73.0469C709.643 70.8906 709.08 68.2812 709.08 65.2188V48.1094C709.08 46.4219 709.377 44.6094 709.971 42.6719C710.564 40.7031 711.518 38.8906 712.83 37.2344C714.174 35.5469 715.908 34.1406 718.033 33.0156C720.189 31.8906 722.799 31.3281 725.861 31.3281H747.846C749.533 31.3281 751.346 31.625 753.283 32.2188C755.252 32.8125 757.064 33.7812 758.721 35.125C760.408 36.4375 761.814 38.1719 762.939 40.3281C764.064 42.4531 764.627 45.0469 764.627 48.1094ZM850.106 82H837.919V53.875C837.919 52.2812 837.638 50.8594 837.075 49.6094C836.544 48.3281 835.809 47.2344 834.872 46.3281C833.934 45.4219 832.825 44.7344 831.544 44.2656C830.294 43.7656 828.934 43.5156 827.466 43.5156H806.138V82H793.95V37.375C793.95 36.5312 794.106 35.75 794.419 35.0312C794.731 34.2812 795.169 33.6406 795.731 33.1094C796.294 32.5469 796.95 32.1094 797.7 31.7969C798.45 31.4844 799.247 31.3281 800.091 31.3281H827.559C829.091 31.3281 830.7 31.5 832.388 31.8438C834.106 32.1875 835.794 32.75 837.45 33.5312C839.138 34.2812 840.731 35.25 842.231 36.4375C843.763 37.5938 845.106 39.0156 846.263 40.7031C847.45 42.3594 848.388 44.2812 849.075 46.4688C849.763 48.6562 850.106 51.125 850.106 53.875V82ZM930.992 82H897.945C896.258 82 894.414 81.7031 892.414 81.1094C890.414 80.5156 888.554 79.5469 886.836 78.2031C885.148 76.8281 883.726 75.0625 882.57 72.9062C881.445 70.7188 880.883 68.0469 880.883 64.8906V48.3906C880.883 47.2344 881.008 46.0156 881.258 44.7344C881.539 43.4531 881.961 42.1875 882.523 40.9375C883.086 39.6562 883.804 38.4375 884.679 37.2812C885.586 36.125 886.664 35.1094 887.914 34.2344C889.195 33.3594 890.664 32.6562 892.32 32.125C893.976 31.5938 895.851 31.3281 897.945 31.3281H930.992V43.5156H897.945C896.351 43.5156 895.133 43.9219 894.289 44.7344C893.476 45.5469 893.07 46.7969 893.07 48.4844V64.8906C893.07 66.4844 893.492 67.7031 894.336 68.5469C895.179 69.3906 896.414 69.8125 898.039 69.8125H930.992V82ZM1016.33 48.1094C1016.33 49.7969 1016.03 51.625 1015.44 53.5938C1014.85 55.5312 1013.88 57.3438 1012.53 59.0312C1011.22 60.6875 1009.49 62.0781 1007.33 63.2031C1005.21 64.3281 1002.61 64.8906 999.549 64.8906H977.565V53.3125H999.549C1001.21 53.3125 1002.49 52.8125 1003.39 51.8125C1004.3 50.7812 1004.75 49.5156 1004.75 48.0156C1004.75 46.4219 1004.24 45.1719 1003.21 44.2656C1002.21 43.3594 1000.99 42.9062 999.549 42.9062H977.565C975.909 42.9062 974.628 43.4219 973.721 44.4531C972.815 45.4531 972.362 46.7031 972.362 48.2031V65.2188C972.362 66.8438 972.862 68.1094 973.862 69.0156C974.893 69.9219 976.159 70.375 977.659 70.375H999.549V82H977.565C975.878 82 974.049 81.7031 972.081 81.1094C970.143 80.5156 968.331 79.5625 966.643 78.25C964.987 76.9062 963.596 75.1719 962.471 73.0469C961.346 70.8906 960.784 68.2812 960.784 65.2188V48.1094C960.784 46.4219 961.081 44.6094 961.674 42.6719C962.268 40.7031 963.221 38.8906 964.534 37.2344C965.878 35.5469 967.612 34.1406 969.737 33.0156C971.893 31.8906 974.503 31.3281 977.565 31.3281H999.549C1001.24 31.3281 1003.05 31.625 1004.99 32.2188C1006.96 32.8125 1008.77 33.7812 1010.42 35.125C1012.11 36.4375 1013.52 38.1719 1014.64 40.3281C1015.77 42.4531 1016.33 45.0469 1016.33 48.1094Z" fill="white"/>
<path d="M355.427 38.925L376.068 14.7998H392.797L363.721 48.6787L392.609 82.3692H375.974L355.427 58.4325L334.976 82.3692H318.293L347.134 48.6787L318.199 14.7998H334.787L355.427 38.925Z" fill="white"/>
<path d="M355.434 38.925L376.072 14.7998H392.8L363.727 48.6787L355.434 38.925Z" fill="#FF5500"/>
<line y1="140.002" x2="820.001" y2="140.002" stroke="white" stroke-width="3"/>
<path d="M846.172 159V154.523H853.555C855.164 154.523 856.461 154.031 857.445 153.047C858.445 152.062 858.945 150.711 858.945 148.992C858.945 147.273 858.422 145.938 857.375 144.984C856.344 144.016 854.969 143.531 853.25 143.531H845.82V139.336H851.938C852.875 139.336 853.711 139.109 854.445 138.656C855.18 138.188 855.75 137.555 856.156 136.758C856.578 135.945 856.789 135.016 856.789 133.969C856.789 132.344 856.32 131.102 855.383 130.242C854.445 129.367 853.227 128.93 851.727 128.93H845.82V124.453H851.562C853.609 124.453 855.383 124.828 856.883 125.578C858.383 126.328 859.531 127.359 860.328 128.672C861.141 129.984 861.547 131.492 861.547 133.195C861.547 134.492 861.312 135.711 860.844 136.852C860.375 137.992 859.758 138.977 858.992 139.805C858.242 140.617 857.406 141.203 856.484 141.562L856.531 140.344C857.969 140.688 859.234 141.258 860.328 142.055C861.422 142.852 862.273 143.867 862.883 145.102C863.508 146.32 863.82 147.742 863.82 149.367C863.82 151.258 863.391 152.93 862.531 154.383C861.688 155.82 860.5 156.953 858.969 157.781C857.453 158.594 855.695 159 853.695 159H846.172ZM841.766 159V124.453H846.617V159H841.766ZM879.919 159V144.469L869.185 124.453H874.786L878.888 132.656L882.286 139.594H882.474L885.872 132.656L889.974 124.453H895.575L884.841 144.469V159H879.919ZM933.585 159V124.453H938.577V154.477H953.179V159H933.585ZM961.192 159V124.453H970.051C972.786 124.453 975.2 125.172 977.293 126.609C979.387 128.031 981.02 130.023 982.192 132.586C983.364 135.133 983.95 138.086 983.95 141.445C983.95 144.914 983.372 147.969 982.215 150.609C981.075 153.234 979.481 155.289 977.434 156.773C975.403 158.258 973.059 159 970.403 159H961.192ZM966.09 154.477H970.543C972.215 154.477 973.684 153.93 974.95 152.836C976.231 151.742 977.231 150.211 977.95 148.242C978.684 146.273 979.051 144.008 979.051 141.445C979.051 138.961 978.692 136.789 977.973 134.93C977.254 133.055 976.254 131.594 974.973 130.547C973.692 129.5 972.215 128.977 970.543 128.977H966.09V154.477ZM1002.2 159.375C1000.45 159.375 998.791 159.031 997.212 158.344C995.65 157.656 994.291 156.711 993.134 155.508C991.978 154.305 991.142 152.922 990.627 151.359L995.337 149.391C995.712 150.469 996.252 151.422 996.955 152.25C997.658 153.062 998.462 153.695 999.369 154.148C1000.29 154.602 1001.25 154.828 1002.25 154.828C1003.27 154.828 1004.19 154.602 1005.02 154.148C1005.85 153.695 1006.5 153.07 1006.99 152.273C1007.49 151.477 1007.74 150.562 1007.74 149.531C1007.74 148.359 1007.45 147.398 1006.87 146.648C1006.29 145.883 1005.52 145.242 1004.55 144.727C1003.6 144.195 1002.55 143.711 1001.41 143.273C1000.27 142.836 999.119 142.367 997.962 141.867C996.822 141.352 995.775 140.742 994.822 140.039C993.869 139.32 993.095 138.422 992.502 137.344C991.923 136.266 991.634 134.914 991.634 133.289C991.634 131.367 992.064 129.719 992.923 128.344C993.798 126.969 994.986 125.914 996.486 125.18C997.986 124.445 999.681 124.078 1001.57 124.078C1003.23 124.078 1004.73 124.352 1006.07 124.898C1007.42 125.445 1008.57 126.203 1009.54 127.172C1010.51 128.125 1011.24 129.211 1011.74 130.43L1007.2 132.281C1006.81 131.5 1006.32 130.836 1005.74 130.289C1005.17 129.727 1004.51 129.305 1003.77 129.023C1003.06 128.727 1002.3 128.578 1001.5 128.578C1000.24 128.578 999.103 128.961 998.103 129.727C997.119 130.492 996.627 131.633 996.627 133.148C996.627 134.305 996.916 135.258 997.494 136.008C998.072 136.742 998.837 137.359 999.791 137.859C1000.76 138.359 1001.81 138.82 1002.95 139.242C1004.1 139.664 1005.24 140.117 1006.38 140.602C1007.53 141.086 1008.59 141.688 1009.54 142.406C1010.49 143.109 1011.26 144.008 1011.84 145.102C1012.43 146.18 1012.73 147.539 1012.73 149.18C1012.73 151.18 1012.27 152.945 1011.35 154.477C1010.42 156.008 1009.17 157.211 1007.57 158.086C1005.99 158.945 1004.2 159.375 1002.2 159.375Z" fill="white"/>
<path d="M2.16 227V193.4H13.008C15.632 193.4 17.776 193.848 19.44 194.744C21.104 195.608 22.336 196.776 23.136 198.248C23.936 199.72 24.336 201.384 24.336 203.24C24.336 205.032 23.92 206.68 23.088 208.184C22.288 209.688 21.04 210.888 19.344 211.784C17.648 212.68 15.472 213.128 12.816 213.128H6.192V227H2.16ZM19.92 227L12.528 211.976H17.04L24.672 227H19.92ZM6.192 209.96H12.72C15.28 209.96 17.152 209.336 18.336 208.088C19.552 206.84 20.16 205.24 20.16 203.288C20.16 201.304 19.568 199.736 18.384 198.584C17.232 197.4 15.328 196.808 12.672 196.808H6.192V209.96ZM53.4862 227V193.4H74.2702V196.712H57.5182V208.424H72.8302V211.688H57.5182V223.688H74.2702V227H53.4862ZM113.333 227L101.861 193.4H106.181L116.453 224.024H116.645L126.725 193.4H130.853L119.573 227H113.333ZM159.186 227V193.4H163.218V227H159.186ZM203.001 227L191.529 193.4H195.849L206.121 224.024H206.313L216.393 193.4H220.521L209.241 227H203.001ZM248.854 227V193.4H269.638V196.712H252.886V208.424H268.198V211.688H252.886V223.688H269.638V227H248.854ZM343.702 227V214.904L332.758 193.4H337.318L345.718 210.728H345.91L354.262 193.4H358.63L347.734 214.904V227H343.702ZM400.678 227.576C397.382 227.576 394.486 226.856 391.99 225.416C389.526 223.944 387.59 221.912 386.182 219.32C384.806 216.696 384.118 213.656 384.118 210.2C384.118 206.776 384.806 203.768 386.182 201.176C387.59 198.552 389.526 196.504 391.99 195.032C394.486 193.56 397.382 192.824 400.678 192.824C404.006 192.824 406.902 193.56 409.366 195.032C411.862 196.504 413.798 198.552 415.174 201.176C416.55 203.768 417.238 206.776 417.238 210.2C417.238 213.656 416.55 216.696 415.174 219.32C413.798 221.912 411.862 223.944 409.366 225.416C406.902 226.856 404.006 227.576 400.678 227.576ZM400.678 224.024C403.142 224.024 405.302 223.48 407.158 222.392C409.046 221.272 410.502 219.688 411.526 217.64C412.582 215.56 413.11 213.08 413.11 210.2C413.11 207.32 412.582 204.856 411.526 202.808C410.502 200.728 409.046 199.144 407.158 198.056C405.302 196.968 403.142 196.424 400.678 196.424C398.214 196.424 396.038 196.968 394.15 198.056C392.294 199.144 390.838 200.728 389.782 202.808C388.758 204.856 388.246 207.32 388.246 210.2C388.246 213.08 388.758 215.56 389.782 217.64C390.838 219.688 392.294 221.272 394.15 222.392C396.038 223.48 398.214 224.024 400.678 224.024ZM459.179 227.576C456.875 227.576 454.779 227.112 452.891 226.184C451.003 225.256 449.499 223.848 448.379 221.96C447.291 220.04 446.747 217.592 446.747 214.616V193.4H450.779V214.664C450.779 216.84 451.131 218.616 451.835 219.992C452.571 221.368 453.579 222.376 454.859 223.016C456.139 223.656 457.611 223.976 459.275 223.976C460.971 223.976 462.443 223.656 463.691 223.016C464.939 222.376 465.915 221.368 466.619 219.992C467.323 218.616 467.675 216.84 467.675 214.664V193.4H471.707V214.616C471.707 217.592 471.147 220.04 470.027 221.96C468.907 223.848 467.403 225.256 465.515 226.184C463.627 227.112 461.515 227.576 459.179 227.576ZM501.688 227V193.4H512.536C515.16 193.4 517.304 193.848 518.968 194.744C520.632 195.608 521.864 196.776 522.664 198.248C523.464 199.72 523.864 201.384 523.864 203.24C523.864 205.032 523.448 206.68 522.616 208.184C521.816 209.688 520.568 210.888 518.872 211.784C517.176 212.68 515 213.128 512.344 213.128H505.72V227H501.688ZM519.448 227L512.056 211.976H516.568L524.2 227H519.448ZM505.72 209.96H512.248C514.808 209.96 516.68 209.336 517.864 208.088C519.08 206.84 519.688 205.24 519.688 203.288C519.688 201.304 519.096 199.736 517.912 198.584C516.76 197.4 514.856 196.808 512.2 196.808H505.72V209.96ZM588.544 227V193.4H609.328V196.712H592.576V208.424H607.888V211.688H592.576V223.688H609.328V227H588.544ZM636.919 227L647.191 210.056L636.919 193.4H641.479L649.639 207.128H649.831L657.607 193.4H662.119L651.847 210.2L662.167 227H657.607L649.543 213.176H649.351L641.479 227H636.919ZM690.493 227V193.4H711.277V196.712H694.525V208.424H709.837V211.688H694.525V223.688H711.277V227H690.493ZM740.788 227V193.4H751.636C754.26 193.4 756.404 193.848 758.068 194.744C759.732 195.608 760.964 196.776 761.764 198.248C762.564 199.72 762.964 201.384 762.964 203.24C762.964 205.032 762.548 206.68 761.716 208.184C760.916 209.688 759.668 210.888 757.972 211.784C756.276 212.68 754.1 213.128 751.444 213.128H744.82V227H740.788ZM758.548 227L751.156 211.976H755.668L763.3 227H758.548ZM744.82 209.96H751.348C753.908 209.96 755.78 209.336 756.964 208.088C758.18 206.84 758.788 205.24 758.788 203.288C758.788 201.304 758.196 199.736 757.012 198.584C755.86 197.4 753.956 196.808 751.3 196.808H744.82V209.96ZM792.114 227V193.4H796.146V227H792.114ZM826.378 227V193.4H847.162V196.712H830.41V208.424H845.722V211.688H830.41V223.688H847.162V227H826.378ZM876.673 227V193.4H882.433L898.417 222.488H898.609V193.4H902.641V227H896.881L880.897 197.912H880.705V227H876.673ZM948.426 227.576C945.13 227.576 942.282 226.856 939.882 225.416C937.482 223.944 935.626 221.912 934.314 219.32C933.034 216.696 932.394 213.656 932.394 210.2C932.394 206.744 933.034 203.72 934.314 201.128C935.626 198.504 937.482 196.472 939.882 195.032C942.282 193.56 945.13 192.824 948.426 192.824C952.298 192.824 955.434 193.736 957.834 195.56C960.234 197.384 961.77 199.96 962.442 203.288H957.978C957.466 201.208 956.426 199.544 954.858 198.296C953.29 197.048 951.146 196.424 948.426 196.424C946.026 196.424 943.93 196.984 942.138 198.104C940.346 199.192 938.954 200.776 937.962 202.856C937.002 204.904 936.522 207.352 936.522 210.2C936.522 213.048 937.002 215.512 937.962 217.592C938.954 219.64 940.346 221.224 942.138 222.344C943.93 223.432 946.026 223.976 948.426 223.976C951.146 223.976 953.306 223.368 954.906 222.152C956.538 220.904 957.61 219.272 958.122 217.256H962.442C961.77 220.488 960.234 223.016 957.834 224.84C955.434 226.664 952.298 227.576 948.426 227.576ZM992.216 227V193.4H1013V196.712H996.248V208.424H1011.56V211.688H996.248V223.688H1013V227H992.216Z" fill="white"/>
</svg>
