<svg width="1015" height="235" viewBox="0 0 1015 235" fill="none" xmlns="http://www.w3.org/2000/svg">
<path d="M74.25 76.7969C74.25 77.6719 74.0781 78.4844 73.7344 79.2344C73.4219 79.9844 72.9844 80.6406 72.4219 81.2031C71.8906 81.7344 71.25 82.1562 70.5 82.4688C69.75 82.7812 68.9531 82.9375 68.1094 82.9375C67.3594 82.9375 66.5938 82.7969 65.8125 82.5156C65.0625 82.2344 64.3906 81.7812 63.7969 81.1562L19.2656 34.6562V82H7.07812V19.9844C7.07812 18.7344 7.42188 17.6094 8.10938 16.6094C8.82812 15.5781 9.73438 14.8125 10.8281 14.3125C11.9844 13.8438 13.1719 13.7344 14.3906 13.9844C15.6094 14.2031 16.6562 14.7656 17.5312 15.6719L62.0625 62.125V14.7812H74.25V76.7969ZM159.124 64.8906C159.124 66.9844 158.858 68.875 158.327 70.5625C157.796 72.2188 157.092 73.6875 156.217 74.9688C155.342 76.2188 154.327 77.2969 153.171 78.2031C152.014 79.0781 150.796 79.7969 149.514 80.3594C148.264 80.9219 146.983 81.3438 145.671 81.625C144.389 81.875 143.171 82 142.014 82H120.03C118.342 82 116.499 81.7031 114.499 81.1094C112.499 80.5156 110.639 79.5469 108.921 78.2031C107.233 76.8281 105.811 75.0625 104.655 72.9062C103.53 70.7188 102.967 68.0469 102.967 64.8906V48.3906C102.967 45.2656 103.53 42.625 104.655 40.4688C105.811 38.2812 107.233 36.5156 108.921 35.1719C110.639 33.7969 112.499 32.8125 114.499 32.2188C116.499 31.625 118.342 31.3281 120.03 31.3281H142.014C145.139 31.3281 147.796 31.8906 149.983 33.0156C152.171 34.1406 153.936 35.5625 155.28 37.2812C156.624 38.9688 157.592 40.8125 158.186 42.8125C158.811 44.8125 159.124 46.6719 159.124 48.3906V64.8906ZM146.936 48.4844C146.936 46.7969 146.514 45.5469 145.671 44.7344C144.827 43.9219 143.608 43.5156 142.014 43.5156H120.124C118.499 43.5156 117.264 43.9375 116.421 44.7812C115.577 45.5938 115.155 46.7969 115.155 48.3906V64.8906C115.155 66.4844 115.577 67.7031 116.421 68.5469C117.264 69.3906 118.499 69.8125 120.124 69.8125H142.014C143.671 69.8125 144.905 69.3906 145.717 68.5469C146.53 67.7031 146.936 66.4844 146.936 64.8906V48.4844ZM247.279 31.3281C245.904 35.6094 244.294 39.8281 242.451 43.9844C240.607 48.1406 238.482 52.1094 236.076 55.8906C233.701 59.6406 231.029 63.125 228.06 66.3438C225.122 69.5312 221.857 72.2969 218.263 74.6406C214.701 76.9531 210.81 78.7812 206.591 80.125C202.404 81.4375 197.857 82.0938 192.951 82.0938C192.107 82.0938 191.31 81.9375 190.56 81.625C189.81 81.3125 189.154 80.8906 188.591 80.3594C188.029 79.7969 187.591 79.1562 187.279 78.4375C186.966 77.6875 186.81 76.8906 186.81 76.0469V31.3281H198.997V69.4375C201.966 69.4375 204.81 68.7969 207.529 67.5156C210.279 66.2344 212.872 64.5469 215.31 62.4531C217.747 60.3281 219.997 57.9219 222.06 55.2344C224.154 52.5469 226.013 49.7969 227.638 46.9844C229.263 44.1406 230.638 41.3594 231.763 38.6406C232.919 35.9219 233.779 33.4844 234.341 31.3281H247.279ZM323.481 48.1094C323.481 49.7969 323.184 51.625 322.59 53.5938C321.996 55.5312 321.027 57.3438 319.684 59.0312C318.371 60.6875 316.637 62.0781 314.481 63.2031C312.356 64.3281 309.762 64.8906 306.699 64.8906H284.715V53.3125H306.699C308.356 53.3125 309.637 52.8125 310.543 51.8125C311.449 50.7812 311.902 49.5156 311.902 48.0156C311.902 46.4219 311.387 45.1719 310.356 44.2656C309.356 43.3594 308.137 42.9062 306.699 42.9062H284.715C283.059 42.9062 281.777 43.4219 280.871 44.4531C279.965 45.4531 279.512 46.7031 279.512 48.2031V65.2188C279.512 66.8438 280.012 68.1094 281.012 69.0156C282.043 69.9219 283.309 70.375 284.809 70.375H306.699V82H284.715C283.027 82 281.199 81.7031 279.231 81.1094C277.293 80.5156 275.481 79.5625 273.793 78.25C272.137 76.9062 270.746 75.1719 269.621 73.0469C268.496 70.8906 267.934 68.2812 267.934 65.2188V48.1094C267.934 46.4219 268.231 44.6094 268.824 42.6719C269.418 40.7031 270.371 38.8906 271.684 37.2344C273.027 35.5469 274.762 34.1406 276.887 33.0156C279.043 31.8906 281.652 31.3281 284.715 31.3281H306.699C308.387 31.3281 310.199 31.625 312.137 32.2188C314.106 32.8125 315.918 33.7812 317.574 35.125C319.262 36.4375 320.668 38.1719 321.793 40.3281C322.918 42.4531 323.481 45.0469 323.481 48.1094ZM381.026 38.7812L401.557 14.7812H418.198L389.276 48.4844L418.011 82H401.464L381.026 58.1875L360.682 82H344.089L372.776 48.4844L343.995 14.7812H360.495L381.026 38.7812ZM497.681 64.8906C497.681 66.9844 497.416 68.875 496.884 70.5625C496.353 72.2188 495.65 73.6875 494.775 74.9688C493.9 76.2188 492.884 77.2969 491.728 78.2031C490.572 79.0781 489.353 79.7969 488.072 80.3594C486.822 80.9219 485.556 81.3438 484.275 81.625C482.994 81.875 481.775 82 480.619 82H458.634V69.8125H480.619C482.244 69.8125 483.462 69.3906 484.275 68.5469C485.087 67.7031 485.494 66.4844 485.494 64.8906V48.4844C485.494 46.7969 485.072 45.5469 484.228 44.7344C483.416 43.9219 482.212 43.5156 480.619 43.5156H458.728C457.072 43.5156 455.822 43.9375 454.978 44.7812C454.134 45.5938 453.712 46.7969 453.712 48.3906V97.8438H441.525V48.3906C441.525 46.2969 441.791 44.4219 442.322 42.7656C442.853 41.1094 443.556 39.6562 444.431 38.4062C445.337 37.125 446.369 36.0469 447.525 35.1719C448.681 34.2656 449.884 33.5312 451.134 32.9688C452.416 32.4062 453.697 32 454.978 31.75C456.291 31.4688 457.509 31.3281 458.634 31.3281H480.619C482.712 31.3281 484.587 31.5938 486.244 32.125C487.9 32.6562 489.353 33.3594 490.603 34.2344C491.884 35.1094 492.962 36.125 493.837 37.2812C494.744 38.4375 495.478 39.6562 496.041 40.9375C496.603 42.1875 497.009 43.4531 497.259 44.7344C497.541 46.0156 497.681 47.2344 497.681 48.3906V64.8906ZM579.883 48.1094C579.883 49.7969 579.586 51.625 578.992 53.5938C578.399 55.5312 577.43 57.3438 576.086 59.0312C574.774 60.6875 573.039 62.0781 570.883 63.2031C568.758 64.3281 566.164 64.8906 563.102 64.8906H541.117V53.3125H563.102C564.758 53.3125 566.039 52.8125 566.946 51.8125C567.852 50.7812 568.305 49.5156 568.305 48.0156C568.305 46.4219 567.789 45.1719 566.758 44.2656C565.758 43.3594 564.539 42.9062 563.102 42.9062H541.117C539.461 42.9062 538.18 43.4219 537.274 44.4531C536.367 45.4531 535.914 46.7031 535.914 48.2031V65.2188C535.914 66.8438 536.414 68.1094 537.414 69.0156C538.446 69.9219 539.711 70.375 541.211 70.375H563.102V82H541.117C539.43 82 537.602 81.7031 535.633 81.1094C533.696 80.5156 531.883 79.5625 530.196 78.25C528.539 76.9062 527.149 75.1719 526.024 73.0469C524.899 70.8906 524.336 68.2812 524.336 65.2188V48.1094C524.336 46.4219 524.633 44.6094 525.227 42.6719C525.821 40.7031 526.774 38.8906 528.086 37.2344C529.43 35.5469 531.164 34.1406 533.289 33.0156C535.446 31.8906 538.055 31.3281 541.117 31.3281H563.102C564.789 31.3281 566.602 31.625 568.539 32.2188C570.508 32.8125 572.321 33.7812 573.977 35.125C575.664 36.4375 577.071 38.1719 578.196 40.3281C579.321 42.4531 579.883 45.0469 579.883 48.1094ZM649.71 43.5156H622.288C620.632 43.5156 619.382 43.9375 618.538 44.7812C617.694 45.5938 617.273 46.7969 617.273 48.3906V82H605.085V48.3906C605.085 46.2969 605.351 44.4219 605.882 42.7656C606.413 41.1094 607.116 39.6562 607.991 38.4062C608.898 37.125 609.929 36.0469 611.085 35.1719C612.241 34.2656 613.444 33.5312 614.694 32.9688C615.976 32.4062 617.257 32 618.538 31.75C619.851 31.4688 621.069 31.3281 622.194 31.3281H649.71V43.5156ZM687.427 20.9219H675.24V9.90625H687.427V20.9219ZM687.427 82H675.24V31.3281H687.427V82ZM770.942 48.1094C770.942 49.7969 770.645 51.625 770.051 53.5938C769.458 55.5312 768.489 57.3438 767.145 59.0312C765.833 60.6875 764.098 62.0781 761.942 63.2031C759.817 64.3281 757.223 64.8906 754.161 64.8906H732.176V53.3125H754.161C755.817 53.3125 757.098 52.8125 758.004 51.8125C758.911 50.7812 759.364 49.5156 759.364 48.0156C759.364 46.4219 758.848 45.1719 757.817 44.2656C756.817 43.3594 755.598 42.9062 754.161 42.9062H732.176C730.52 42.9062 729.239 43.4219 728.333 44.4531C727.426 45.4531 726.973 46.7031 726.973 48.2031V65.2188C726.973 66.8438 727.473 68.1094 728.473 69.0156C729.504 69.9219 730.77 70.375 732.27 70.375H754.161V82H732.176C730.489 82 728.661 81.7031 726.692 81.1094C724.754 80.5156 722.942 79.5625 721.254 78.25C719.598 76.9062 718.208 75.1719 717.083 73.0469C715.958 70.8906 715.395 68.2812 715.395 65.2188V48.1094C715.395 46.4219 715.692 44.6094 716.286 42.6719C716.879 40.7031 717.833 38.8906 719.145 37.2344C720.489 35.5469 722.223 34.1406 724.348 33.0156C726.504 31.8906 729.114 31.3281 732.176 31.3281H754.161C755.848 31.3281 757.661 31.625 759.598 32.2188C761.567 32.8125 763.379 33.7812 765.036 35.125C766.723 36.4375 768.129 38.1719 769.254 40.3281C770.379 42.4531 770.942 45.0469 770.942 48.1094ZM852.581 82H840.394V53.875C840.394 52.2812 840.112 50.8594 839.55 49.6094C839.019 48.3281 838.284 47.2344 837.347 46.3281C836.409 45.4219 835.3 44.7344 834.019 44.2656C832.769 43.7656 831.409 43.5156 829.941 43.5156H808.612V82H796.425V37.375C796.425 36.5312 796.581 35.75 796.894 35.0312C797.206 34.2812 797.644 33.6406 798.206 33.1094C798.769 32.5469 799.425 32.1094 800.175 31.7969C800.925 31.4844 801.722 31.3281 802.566 31.3281H830.034C831.566 31.3281 833.175 31.5 834.862 31.8438C836.581 32.1875 838.269 32.75 839.925 33.5312C841.612 34.2812 843.206 35.25 844.706 36.4375C846.237 37.5938 847.581 39.0156 848.737 40.7031C849.925 42.3594 850.862 44.2812 851.55 46.4688C852.237 48.6562 852.581 51.125 852.581 53.875V82ZM929.627 82H896.58C894.893 82 893.049 81.7031 891.049 81.1094C889.049 80.5156 887.189 79.5469 885.471 78.2031C883.783 76.8281 882.361 75.0625 881.205 72.9062C880.08 70.7188 879.518 68.0469 879.518 64.8906V48.3906C879.518 47.2344 879.643 46.0156 879.893 44.7344C880.174 43.4531 880.596 42.1875 881.158 40.9375C881.721 39.6562 882.439 38.4375 883.314 37.2812C884.221 36.125 885.299 35.1094 886.549 34.2344C887.83 33.3594 889.299 32.6562 890.955 32.125C892.611 31.5938 894.486 31.3281 896.58 31.3281H929.627V43.5156H896.58C894.986 43.5156 893.768 43.9219 892.924 44.7344C892.111 45.5469 891.705 46.7969 891.705 48.4844V64.8906C891.705 66.4844 892.127 67.7031 892.971 68.5469C893.814 69.3906 895.049 69.8125 896.674 69.8125H929.627V82ZM1011.13 48.1094C1011.13 49.7969 1010.83 51.625 1010.23 53.5938C1009.64 55.5312 1008.67 57.3438 1007.33 59.0312C1006.02 60.6875 1004.28 62.0781 1002.13 63.2031C1000 64.3281 997.407 64.8906 994.344 64.8906H972.36V53.3125H994.344C996.001 53.3125 997.282 52.8125 998.188 51.8125C999.094 50.7812 999.547 49.5156 999.547 48.0156C999.547 46.4219 999.032 45.1719 998.001 44.2656C997.001 43.3594 995.782 42.9062 994.344 42.9062H972.36C970.704 42.9062 969.422 43.4219 968.516 44.4531C967.61 45.4531 967.157 46.7031 967.157 48.2031V65.2188C967.157 66.8438 967.657 68.1094 968.657 69.0156C969.688 69.9219 970.954 70.375 972.454 70.375H994.344V82H972.36C970.672 82 968.844 81.7031 966.876 81.1094C964.938 80.5156 963.126 79.5625 961.438 78.25C959.782 76.9062 958.391 75.1719 957.266 73.0469C956.141 70.8906 955.579 68.2812 955.579 65.2188V48.1094C955.579 46.4219 955.876 44.6094 956.469 42.6719C957.063 40.7031 958.016 38.8906 959.329 37.2344C960.672 35.5469 962.407 34.1406 964.532 33.0156C966.688 31.8906 969.297 31.3281 972.36 31.3281H994.344C996.032 31.3281 997.844 31.625 999.782 32.2188C1001.75 32.8125 1003.56 33.7812 1005.22 35.125C1006.91 36.4375 1008.31 38.1719 1009.44 40.3281C1010.56 42.4531 1011.13 45.0469 1011.13 48.1094Z" fill="white"/>
<path d="M380.427 38.925L401.068 14.7998H417.797L388.721 48.6787L417.609 82.3692H400.974L380.427 58.4325L359.976 82.3692H343.293L372.134 48.6787L343.199 14.7998H359.787L380.427 38.925Z" fill="white"/>
<path d="M380.5 38.5L401 14.5H418.5L389.5 48.5L380.5 38.5Z" fill="#A12ECD"/>
<line y1="140.002" x2="820.001" y2="140.002" stroke="white" stroke-width="3"/>
<path d="M846.172 159V154.523H853.555C855.164 154.523 856.461 154.031 857.445 153.047C858.445 152.062 858.945 150.711 858.945 148.992C858.945 147.273 858.422 145.938 857.375 144.984C856.344 144.016 854.969 143.531 853.25 143.531H845.82V139.336H851.938C852.875 139.336 853.711 139.109 854.445 138.656C855.18 138.188 855.75 137.555 856.156 136.758C856.578 135.945 856.789 135.016 856.789 133.969C856.789 132.344 856.32 131.102 855.383 130.242C854.445 129.367 853.227 128.93 851.727 128.93H845.82V124.453H851.562C853.609 124.453 855.383 124.828 856.883 125.578C858.383 126.328 859.531 127.359 860.328 128.672C861.141 129.984 861.547 131.492 861.547 133.195C861.547 134.492 861.312 135.711 860.844 136.852C860.375 137.992 859.758 138.977 858.992 139.805C858.242 140.617 857.406 141.203 856.484 141.562L856.531 140.344C857.969 140.688 859.234 141.258 860.328 142.055C861.422 142.852 862.273 143.867 862.883 145.102C863.508 146.32 863.82 147.742 863.82 149.367C863.82 151.258 863.391 152.93 862.531 154.383C861.688 155.82 860.5 156.953 858.969 157.781C857.453 158.594 855.695 159 853.695 159H846.172ZM841.766 159V124.453H846.617V159H841.766ZM879.439 159V144.469L868.705 124.453H874.306L878.408 132.656L881.806 139.594H881.994L885.392 132.656L889.494 124.453H895.095L884.361 144.469V159H879.439ZM932.145 159V124.453H937.137V154.477H951.739V159H932.145ZM959.272 159V124.453H968.131C970.866 124.453 973.28 125.172 975.373 126.609C977.467 128.031 979.1 130.023 980.272 132.586C981.444 135.133 982.03 138.086 982.03 141.445C982.03 144.914 981.452 147.969 980.295 150.609C979.155 153.234 977.561 155.289 975.514 156.773C973.483 158.258 971.139 159 968.483 159H959.272ZM964.17 154.477H968.623C970.295 154.477 971.764 153.93 973.03 152.836C974.311 151.742 975.311 150.211 976.03 148.242C976.764 146.273 977.131 144.008 977.131 141.445C977.131 138.961 976.772 136.789 976.053 134.93C975.334 133.055 974.334 131.594 973.053 130.547C971.772 129.5 970.295 128.977 968.623 128.977H964.17V154.477ZM999.805 159.375C998.055 159.375 996.391 159.031 994.812 158.344C993.25 157.656 991.891 156.711 990.734 155.508C989.578 154.305 988.742 152.922 988.227 151.359L992.938 149.391C993.312 150.469 993.852 151.422 994.555 152.25C995.258 153.062 996.062 153.695 996.969 154.148C997.891 154.602 998.852 154.828 999.852 154.828C1000.87 154.828 1001.79 154.602 1002.62 154.148C1003.45 153.695 1004.1 153.07 1004.59 152.273C1005.09 151.477 1005.34 150.562 1005.34 149.531C1005.34 148.359 1005.05 147.398 1004.47 146.648C1003.89 145.883 1003.12 145.242 1002.15 144.727C1001.2 144.195 1000.15 143.711 999.008 143.273C997.867 142.836 996.719 142.367 995.562 141.867C994.422 141.352 993.375 140.742 992.422 140.039C991.469 139.32 990.695 138.422 990.102 137.344C989.523 136.266 989.234 134.914 989.234 133.289C989.234 131.367 989.664 129.719 990.523 128.344C991.398 126.969 992.586 125.914 994.086 125.18C995.586 124.445 997.281 124.078 999.172 124.078C1000.83 124.078 1002.33 124.352 1003.67 124.898C1005.02 125.445 1006.17 126.203 1007.14 127.172C1008.11 128.125 1008.84 129.211 1009.34 130.43L1004.8 132.281C1004.41 131.5 1003.92 130.836 1003.34 130.289C1002.77 129.727 1002.11 129.305 1001.38 129.023C1000.66 128.727 999.898 128.578 999.102 128.578C997.836 128.578 996.703 128.961 995.703 129.727C994.719 130.492 994.227 131.633 994.227 133.148C994.227 134.305 994.516 135.258 995.094 136.008C995.672 136.742 996.438 137.359 997.391 137.859C998.359 138.359 999.414 138.82 1000.55 139.242C1001.7 139.664 1002.84 140.117 1003.98 140.602C1005.13 141.086 1006.19 141.688 1007.14 142.406C1008.09 143.109 1008.86 144.008 1009.44 145.102C1010.03 146.18 1010.33 147.539 1010.33 149.18C1010.33 151.18 1009.87 152.945 1008.95 154.477C1008.02 156.008 1006.77 157.211 1005.17 158.086C1003.59 158.945 1001.8 159.375 999.805 159.375Z" fill="white"/>
<path d="M14.352 227.576C12.048 227.576 9.952 227.112 8.064 226.184C6.176 225.256 4.672 223.848 3.552 221.96C2.464 220.04 1.92 217.592 1.92 214.616V193.4H5.952V214.664C5.952 216.84 6.304 218.616 7.008 219.992C7.744 221.368 8.752 222.376 10.032 223.016C11.312 223.656 12.784 223.976 14.448 223.976C16.144 223.976 17.616 223.656 18.864 223.016C20.112 222.376 21.088 221.368 21.792 219.992C22.496 218.616 22.848 216.84 22.848 214.664V193.4H26.88V214.616C26.88 217.592 26.32 220.04 25.2 221.96C24.08 223.848 22.576 225.256 20.688 226.184C18.8 227.112 16.688 227.576 14.352 227.576ZM51.1012 227V193.4H56.8613L72.8453 222.488H73.0373V193.4H77.0693V227H71.3093L55.3252 197.912H55.1333V227H51.1012ZM101.542 227V193.4H105.575V223.784H121.223V227H101.542ZM144.249 227V193.4H165.033V196.712H148.281V208.424H163.593V211.688H148.281V223.688H165.033V227H144.249ZM186.864 227L198.336 193.4H204.576L215.856 227H211.584L201.552 196.376H201.36L191.088 227H186.864ZM192.528 216.488L193.68 213.224H208.896L210.048 216.488H192.528ZM249.613 227.576C247.149 227.576 245.005 227.128 243.181 226.232C241.357 225.336 239.949 224.088 238.957 222.488C237.965 220.888 237.469 219.032 237.469 216.92H241.693C241.693 218.232 241.981 219.448 242.557 220.568C243.133 221.656 244.013 222.536 245.197 223.208C246.381 223.848 247.869 224.168 249.661 224.168C251.101 224.168 252.365 223.96 253.453 223.544C254.541 223.128 255.389 222.504 255.997 221.672C256.637 220.84 256.957 219.8 256.957 218.552C256.957 217.304 256.669 216.28 256.093 215.48C255.549 214.648 254.797 213.96 253.837 213.416C252.877 212.872 251.805 212.408 250.621 212.024C249.469 211.608 248.285 211.192 247.069 210.776C244.157 209.752 242.013 208.52 240.637 207.08C239.293 205.608 238.621 203.8 238.621 201.656C238.621 199.96 239.037 198.456 239.869 197.144C240.733 195.8 241.949 194.744 243.517 193.976C245.117 193.208 247.005 192.824 249.181 192.824C251.325 192.824 253.181 193.224 254.749 194.024C256.349 194.824 257.597 195.928 258.493 197.336C259.389 198.712 259.837 200.312 259.837 202.136H255.613C255.613 200.952 255.357 199.912 254.845 199.016C254.333 198.12 253.581 197.416 252.589 196.904C251.597 196.36 250.349 196.088 248.845 196.088C247.661 196.088 246.589 196.264 245.629 196.616C244.701 196.968 243.965 197.528 243.421 198.296C242.909 199.064 242.653 200.056 242.653 201.272C242.653 202.296 242.861 203.144 243.277 203.816C243.693 204.488 244.301 205.08 245.101 205.592C245.933 206.072 246.941 206.552 248.125 207.032C249.341 207.48 250.733 207.992 252.301 208.568C253.933 209.144 255.389 209.832 256.669 210.632C257.981 211.4 259.005 212.376 259.741 213.56C260.509 214.744 260.893 216.248 260.893 218.072C260.893 219.704 260.477 221.256 259.645 222.728C258.813 224.168 257.565 225.336 255.901 226.232C254.237 227.128 252.141 227.576 249.613 227.576ZM305.873 227V193.4H309.905V227H305.873ZM284.417 227V193.4H288.449V227H284.417ZM287.681 211.544V208.232H306.881V211.544H287.681ZM373.183 227V214.904L362.239 193.4H366.799L375.199 210.728H375.391L383.743 193.4H388.111L377.215 214.904V227H373.183ZM424.399 227.576C421.103 227.576 418.207 226.856 415.711 225.416C413.247 223.944 411.311 221.912 409.903 219.32C408.527 216.696 407.839 213.656 407.839 210.2C407.839 206.776 408.527 203.768 409.903 201.176C411.311 198.552 413.247 196.504 415.711 195.032C418.207 193.56 421.103 192.824 424.399 192.824C427.727 192.824 430.623 193.56 433.087 195.032C435.583 196.504 437.519 198.552 438.895 201.176C440.271 203.768 440.959 206.776 440.959 210.2C440.959 213.656 440.271 216.696 438.895 219.32C437.519 221.912 435.583 223.944 433.087 225.416C430.623 226.856 427.727 227.576 424.399 227.576ZM424.399 224.024C426.863 224.024 429.023 223.48 430.879 222.392C432.767 221.272 434.223 219.688 435.247 217.64C436.303 215.56 436.831 213.08 436.831 210.2C436.831 207.32 436.303 204.856 435.247 202.808C434.223 200.728 432.767 199.144 430.879 198.056C429.023 196.968 426.863 196.424 424.399 196.424C421.935 196.424 419.759 196.968 417.871 198.056C416.015 199.144 414.559 200.728 413.503 202.808C412.479 204.856 411.967 207.32 411.967 210.2C411.967 213.08 412.479 215.56 413.503 217.64C414.559 219.688 416.015 221.272 417.871 222.392C419.759 223.48 421.935 224.024 424.399 224.024ZM477.14 227.576C474.836 227.576 472.74 227.112 470.852 226.184C468.964 225.256 467.46 223.848 466.34 221.96C465.252 220.04 464.708 217.592 464.708 214.616V193.4H468.74V214.664C468.74 216.84 469.092 218.616 469.796 219.992C470.532 221.368 471.54 222.376 472.82 223.016C474.1 223.656 475.572 223.976 477.236 223.976C478.932 223.976 480.404 223.656 481.652 223.016C482.9 222.376 483.876 221.368 484.58 219.992C485.284 218.616 485.636 216.84 485.636 214.664V193.4H489.668V214.616C489.668 217.592 489.108 220.04 487.988 221.96C486.868 223.848 485.364 225.256 483.476 226.184C481.588 227.112 479.476 227.576 477.14 227.576ZM513.889 227V193.4H524.737C527.361 193.4 529.505 193.848 531.169 194.744C532.833 195.608 534.065 196.776 534.865 198.248C535.665 199.72 536.065 201.384 536.065 203.24C536.065 205.032 535.649 206.68 534.817 208.184C534.017 209.688 532.769 210.888 531.073 211.784C529.377 212.68 527.201 213.128 524.545 213.128H517.921V227H513.889ZM531.649 227L524.257 211.976H528.769L536.401 227H531.649ZM517.921 209.96H524.449C527.009 209.96 528.881 209.336 530.065 208.088C531.281 206.84 531.889 205.24 531.889 203.288C531.889 201.304 531.297 199.736 530.113 198.584C528.961 197.4 527.057 196.808 524.401 196.808H517.921V209.96ZM589.224 227V193.4H610.008V196.712H593.256V208.424H608.568V211.688H593.256V223.688H610.008V227H589.224ZM631.839 227L642.111 210.056L631.839 193.4H636.399L644.559 207.128H644.751L652.527 193.4H657.039L646.767 210.2L657.087 227H652.527L644.463 213.176H644.271L636.399 227H631.839ZM679.654 227V193.4H690.694C693.318 193.4 695.478 193.832 697.174 194.696C698.87 195.56 700.118 196.728 700.918 198.2C701.75 199.672 702.166 201.336 702.166 203.192C702.166 205.016 701.766 206.664 700.966 208.136C700.166 209.608 698.918 210.792 697.222 211.688C695.526 212.552 693.35 212.984 690.694 212.984H683.686V227H679.654ZM683.686 209.576H690.598C693.254 209.576 695.158 209 696.31 207.848C697.462 206.696 698.038 205.144 698.038 203.192C698.038 201.144 697.462 199.56 696.31 198.44C695.158 197.32 693.254 196.76 690.598 196.76H683.686V209.576ZM725.454 227V193.4H746.238V196.712H729.486V208.424H744.798V211.688H729.486V223.688H746.238V227H725.454ZM769.989 227V193.4H780.837C783.461 193.4 785.605 193.848 787.269 194.744C788.933 195.608 790.165 196.776 790.965 198.248C791.765 199.72 792.165 201.384 792.165 203.24C792.165 205.032 791.749 206.68 790.917 208.184C790.117 209.688 788.869 210.888 787.173 211.784C785.477 212.68 783.301 213.128 780.645 213.128H774.021V227H769.989ZM787.749 227L780.357 211.976H784.869L792.501 227H787.749ZM774.021 209.96H780.549C783.109 209.96 784.981 209.336 786.165 208.088C787.381 206.84 787.989 205.24 787.989 203.288C787.989 201.304 787.397 199.736 786.213 198.584C785.061 197.4 783.157 196.808 780.501 196.808H774.021V209.96ZM815.556 227V193.4H819.588V227H815.556ZM844.059 227V193.4H864.843V196.712H848.091V208.424H863.403V211.688H848.091V223.688H864.843V227H844.059ZM888.594 227V193.4H894.354L910.338 222.488H910.53V193.4H914.562V227H908.802L892.818 197.912H892.626V227H888.594ZM954.588 227.576C951.292 227.576 948.444 226.856 946.044 225.416C943.644 223.944 941.788 221.912 940.476 219.32C939.196 216.696 938.556 213.656 938.556 210.2C938.556 206.744 939.196 203.72 940.476 201.128C941.788 198.504 943.644 196.472 946.044 195.032C948.444 193.56 951.292 192.824 954.588 192.824C958.46 192.824 961.596 193.736 963.996 195.56C966.396 197.384 967.932 199.96 968.604 203.288H964.14C963.628 201.208 962.588 199.544 961.02 198.296C959.452 197.048 957.308 196.424 954.588 196.424C952.188 196.424 950.092 196.984 948.3 198.104C946.508 199.192 945.116 200.776 944.124 202.856C943.164 204.904 942.684 207.352 942.684 210.2C942.684 213.048 943.164 215.512 944.124 217.592C945.116 219.64 946.508 221.224 948.3 222.344C950.092 223.432 952.188 223.976 954.588 223.976C957.308 223.976 959.468 223.368 961.068 222.152C962.7 220.904 963.772 219.272 964.284 217.256H968.604C967.932 220.488 966.396 223.016 963.996 224.84C961.596 226.664 958.46 227.576 954.588 227.576ZM992.618 227V193.4H1013.4V196.712H996.65V208.424H1011.96V211.688H996.65V223.688H1013.4V227H992.618Z" fill="white"/>
</svg>
